<?xml version="1.0" encoding="utf-8"?>
<!-- Generator: Adobe Illustrator 15.1.0, SVG Export Plug-In  -->
<!DOCTYPE svg PUBLIC "-//W3C//DTD SVG 1.1//EN" "http://www.w3.org/Graphics/SVG/1.1/DTD/svg11.dtd" [
	<!ENTITY ns_flows "http://ns.adobe.com/Flows/1.0/">
]>
<svg version="1.1"
	 xmlns="http://www.w3.org/2000/svg" xmlns:xlink="http://www.w3.org/1999/xlink" xmlns:a="http://ns.adobe.com/AdobeSVGViewerExtensions/3.0/"
	 x="0px" y="0px" width="130px" height="40px" viewBox="-0.373 -0.177 130 40"
	 overflow="visible" enable-background="new -0.373 -0.177 130 40" xml:space="preserve">
<defs>
</defs>
<polygon fill="#7AC805" points="34.357,0 24.817,0 15.773,9.043 13.324,6.594 4.331,6.594 11.234,13.389 0,24.624 14.635,24.624 
	12.37,22.358 16.275,18.454 19.09,21.27 0.714,39.645 15.368,39.645 13.035,37.311 28.981,21.366 20.844,13.729 "/>
<path fill="#FFFFFF" d="M46.853,21.387l-5.246-7.846h5.086l2.829,4.494l2.851-4.494h4.972l-5.246,7.801l5.474,8.164h-5.086
	l-3.056-4.812l-3.079,4.812h-4.972L46.853,21.387z"/>
<path fill="#FFFFFF" d="M59.898,13.541h4.447v15.965h-4.447V13.541z"/>
<path fill="#FFFFFF" d="M68.406,13.541h7.549c2.439,0,4.128,0.64,5.199,1.735c0.935,0.912,1.414,2.143,1.414,3.716v0.046
	c0,2.441-1.3,4.06-3.283,4.904l3.809,5.564h-5.108l-3.217-4.834h-0.045H72.83v4.834h-4.424V13.541z M75.75,21.204
	c1.505,0,2.371-0.729,2.371-1.892v-0.046c0-1.254-0.912-1.892-2.395-1.892H72.83v3.83H75.75z"/>
<path fill="#FFFFFF" d="M84.165,27.135l2.462-2.943c1.574,1.254,3.331,1.916,5.179,1.916c1.187,0,1.824-0.41,1.824-1.094v-0.045
	c0-0.662-0.523-1.027-2.689-1.529c-3.398-0.775-6.023-1.734-6.023-5.018v-0.045c0-2.965,2.351-5.11,6.181-5.11
	c2.714,0,4.837,0.73,6.568,2.123l-2.212,3.125c-1.46-1.026-3.057-1.575-4.471-1.575c-1.072,0-1.596,0.456-1.596,1.026v0.046
	c0,0.73,0.548,1.049,2.761,1.55c3.672,0.8,5.952,1.986,5.952,4.972v0.047c0,3.262-2.578,5.199-6.455,5.199
	C88.817,29.78,86.128,28.891,84.165,27.135z"/>
<path fill="#FFFFFF" d="M104.852,23.532l-6.066-9.991h5.04l3.284,5.817l3.307-5.817h4.948l-6.066,9.92v6.045h-4.446V23.532z"/>
<path fill="#FFFFFF" d="M115.32,27.135l2.463-2.943c1.574,1.254,3.33,1.916,5.176,1.916c1.187,0,1.827-0.41,1.827-1.094v-0.045
	c0-0.662-0.527-1.027-2.693-1.529c-3.398-0.775-6.021-1.734-6.021-5.018v-0.045c0-2.965,2.349-5.11,6.181-5.11
	c2.715,0,4.835,0.73,6.569,2.123l-2.212,3.125c-1.461-1.026-3.057-1.575-4.471-1.575c-1.072,0-1.597,0.456-1.597,1.026v0.046
	c0,0.73,0.546,1.049,2.758,1.55c3.673,0.8,5.953,1.986,5.953,4.972v0.047c0,3.262-2.576,5.199-6.452,5.199
	C119.974,29.78,117.28,28.891,115.32,27.135z"/>
</svg>
